<svg width="22" height="22" viewBox="0 0 22 22" fill="none" xmlns="http://www.w3.org/2000/svg">
<path fill-rule="evenodd" clip-rule="evenodd" d="M16.1333 2.93333H5.86668V4.4C5.86668 5.21002 5.21003 5.86667 4.40002 5.86667C3.59 5.86667 2.93335 5.21002 2.93335 4.4V2.93333H2C0.895431 2.93333 0 3.82877 0 4.93334V19.2667C0 20.3712 0.89543 21.2667 2 21.2667H20C21.1046 21.2667 22 20.3712 22 19.2667V4.93333C22 3.82876 21.1046 2.93333 20 2.93333H19.0667V4.4C19.0667 5.21002 18.41 5.86667 17.6 5.86667C16.79 5.86667 16.1333 5.21002 16.1333 4.4V2.93333ZM20.5333 8.06667H1.46665V18.8C1.46665 19.3523 1.91436 19.8 2.46665 19.8H19.5333C20.0856 19.8 20.5333 19.3523 20.5333 18.8V8.06667Z" fill="white"/>
<rect x="3.66669" width="1.46667" height="5.13333" rx="0.733333" fill="white"/>
<rect x="16.8667" width="1.46667" height="5.13333" rx="0.733333" fill="white"/>
</svg>
